<svg xmlns="http://www.w3.org/2000/svg"
fill="currentColor" viewBox="0 0 480.000000 480.000000"
 preserveAspectRatio="xMidYMid meet">

<g transform="translate(0.000000,480.000000) scale(0.100000,-0.100000)"
 stroke="none">
<path d="M2364 4740 c-64 -13 -155 -54 -307 -136 -138 -75 -141 -76 -196 -71
-108 12 -173 43 -340 163 -36 25 -88 32 -120 14 -10 -5 -26 -29 -36 -52 -24
-60 -25 -267 -1 -358 57 -217 184 -435 370 -636 l85 -92 -52 -6 c-138 -18
-294 -82 -376 -154 -51 -45 -59 -88 -23 -124 32 -33 73 -27 123 16 62 53 156
95 255 114 74 14 86 14 94 2 15 -23 14 -25 -53 -79 -90 -71 -240 -230 -328
-347 -280 -372 -493 -868 -581 -1357 -18 -98 -22 -161 -22 -324 l-1 -201 -69
36 c-38 20 -92 57 -121 84 l-52 47 -29 -71 c-15 -39 -44 -91 -63 -117 -83
-112 -252 -262 -391 -346 -33 -20 -60 -38 -60 -41 0 -2 23 -15 50 -29 50 -26
61 -39 37 -48 -10 -4 -11 -30 -4 -123 5 -66 10 -120 12 -122 2 -2 338 -77 746
-166 l743 -162 279 178 278 178 94 0 95 0 322 -177 c178 -97 328 -176 333
-176 13 0 1442 449 1473 463 21 9 22 15 22 129 0 93 -3 121 -15 131 -23 19
-19 26 30 57 25 15 45 31 45 35 0 3 13 9 29 13 26 5 29 11 35 58 12 99 7 209
-9 227 -15 16 -12 20 29 44 25 14 47 30 51 35 3 5 -19 24 -47 42 -248 152
-419 339 -499 546 -8 21 -12 19 -71 -40 -35 -35 -91 -79 -125 -99 l-61 -36
-17 76 c-146 679 -516 1328 -933 1638 l-53 39 123 7 c132 7 267 37 308 67 32
23 40 84 14 112 -22 24 -47 24 -137 -1 -39 -11 -117 -23 -171 -27 l-99 -6 97
109 c251 281 406 610 406 862 0 84 -15 138 -47 169 -40 41 -93 29 -195 -45
-135 -99 -255 -142 -350 -128 -24 4 -96 35 -163 71 -250 136 -287 150 -361
135z m380 -1112 c15 -25 6 -28 -43 -16 -41 10 -42 12 -25 25 24 17 54 13 68
-9z m-495 -20 c28 -6 51 -14 51 -17 0 -12 -137 -37 -177 -33 -22 2 -53 14 -69
27 l-29 23 35 11 c39 11 111 7 189 -11z m-89 -253 l25 -14 -35 -1 c-51 0 -85
11 -68 21 19 13 50 10 78 -6z m391 -886 c3 -13 4 -74 1 -134 l-5 -110 89 -45
c96 -49 110 -64 100 -103 -10 -42 -46 -44 -109 -8 -30 17 -60 31 -66 31 -8 0
-11 -30 -9 -102 l3 -103 51 -6 c143 -18 226 -105 225 -239 0 -108 -61 -192
-182 -249 -78 -37 -80 -42 -66 -176 5 -50 5 -102 0 -123 -8 -32 -13 -37 -33
-34 -48 7 -58 29 -70 152 -7 63 -13 116 -13 116 -1 1 -31 4 -66 6 l-64 4 7
-114 c7 -127 2 -142 -45 -142 -37 0 -47 21 -54 112 -14 186 -9 172 -74 212
-87 53 -161 126 -161 158 0 24 30 58 52 58 4 0 35 -25 70 -56 104 -93 102 -93
95 22 -4 55 -7 120 -7 147 0 43 -2 47 -23 47 -13 0 -48 12 -78 28 -99 50 -148
150 -119 244 13 46 90 127 139 148 36 15 37 24 15 121 -15 66 -15 72 2 90 20
22 57 25 73 5 7 -8 20 -51 29 -95 l17 -81 87 0 88 0 0 108 c0 109 7 134 40
144 25 8 54 -8 61 -33z m1734 -931 c58 -70 174 -176 264 -239 l62 -43 -23 -18
c-36 -28 -293 -154 -403 -197 -73 -29 -103 -37 -112 -29 -22 18 -15 24 45 42
95 30 252 95 310 128 l55 31 -49 25 -48 25 29 23 c17 13 34 24 38 24 17 0 1
20 -65 77 -37 33 -85 81 -107 108 l-40 48 -66 -2 c-61 -2 -67 0 -96 28 -17 17
-32 31 -34 31 -2 0 -25 -14 -50 -31 -51 -34 -174 -89 -254 -113 -41 -12 -52
-12 -61 -1 -13 16 -12 17 75 45 96 30 299 131 360 178 l49 39 36 -59 c19 -32
58 -86 85 -120z m-214 -58 c24 -11 64 -20 89 -20 41 0 49 -5 112 -67 57 -56
65 -69 57 -85 -6 -11 -9 -36 -7 -56 l3 -37 -90 -36 c-49 -20 -125 -47 -168
-59 l-78 -23 -35 34 c-20 19 -77 81 -126 138 l-90 104 89 32 c68 24 175 75
199 94 1 0 21 -8 45 -19z m-711 -100 c0 -5 -15 -11 -32 -14 -82 -14 -192 -25
-288 -31 -58 -3 -124 -8 -148 -11 l-43 -5 16 -26 c21 -31 11 -40 -57 -49 -27
-4 -48 -10 -48 -13 0 -4 81 -72 179 -151 l179 -145 87 0 c86 0 87 0 117 -34
l30 -33 131 26 c73 14 168 35 212 45 73 18 81 18 98 3 9 -8 14 -19 10 -23 -22
-20 -336 -76 -485 -86 l-98 -6 -57 38 c-166 109 -347 269 -444 391 -27 34 -49
64 -49 67 0 2 60 7 133 11 143 8 375 31 447 45 62 12 110 13 110 1z m204 -219
c113 -114 135 -140 120 -145 -11 -3 -82 -19 -158 -35 l-139 -30 -31 24 c-40
30 -115 49 -168 42 -41 -5 -45 -3 -155 84 l-113 90 22 29 c18 25 29 29 87 35
36 3 134 14 216 24 83 10 157 19 165 20 8 0 78 -62 154 -138z m-2886 -40 c74
-52 240 -123 386 -166 59 -17 76 -25 63 -31 -25 -9 -220 55 -333 111 -50 25
-91 39 -93 33 -2 -6 -15 -24 -30 -40 -20 -23 -38 -31 -74 -35 -26 -3 -47 -3
-47 0 0 8 92 147 98 147 2 0 16 -8 30 -19z m297 -243 c52 -17 95 -34 95 -38 0
-3 -52 -63 -115 -132 l-115 -127 -68 19 c-38 11 -114 35 -168 55 -55 19 -100
35 -101 35 -1 0 0 13 3 29 3 16 1 38 -6 50 -10 20 -5 28 41 79 39 42 65 61
102 73 27 10 58 26 69 37 20 20 20 20 94 -15 41 -18 117 -48 169 -65z m-445
81 c0 -15 -108 -126 -147 -150 -18 -11 -33 -24 -33 -28 0 -5 18 -15 40 -24 22
-8 40 -20 40 -25 0 -6 -14 -22 -31 -36 l-31 -26 78 -36 c43 -19 134 -54 202
-76 76 -25 120 -44 114 -50 -11 -11 -88 10 -238 67 -121 46 -303 127 -304 135
0 3 13 13 29 23 43 25 180 139 231 191 48 50 50 51 50 35z m2380 -294 c149
-96 275 -175 280 -175 5 0 264 70 575 156 312 85 572 153 578 151 18 -6 -255
-140 -408 -200 -270 -106 -539 -175 -825 -210 -36 -5 -92 21 -220 102 -162
101 -423 333 -389 345 17 7 109 13 126 10 7 -2 134 -82 283 -179z m-772 165
c-7 -22 -127 -155 -188 -209 -84 -74 -188 -154 -273 -210 l-68 -44 -137 6
c-136 6 -390 39 -434 56 -20 8 -21 10 -5 16 9 4 68 -2 130 -14 114 -22 308
-50 340 -51 9 0 17 6 17 14 0 8 10 27 23 42 19 22 35 28 85 33 l62 6 171 145
c184 156 185 158 87 159 -50 1 -51 2 -42 39 6 21 11 22 121 22 70 0 113 -4
111 -10z m-488 -66 c143 -6 177 -10 187 -23 7 -9 13 -19 13 -23 0 -3 -42 -43
-94 -87 -70 -60 -101 -81 -122 -81 -53 0 -108 -22 -142 -56 -25 -25 -40 -32
-60 -29 -15 3 -85 14 -157 25 -71 12 -136 23 -144 26 -9 3 32 51 115 133 l129
129 50 -4 c28 -2 129 -7 225 -10z"/>
<path d="M2296 2113 c3 -21 9 -78 12 -128 l7 -90 65 0 65 0 3 121 c3 140 8
134 -101 134 l-57 0 6 -37z"/>
<path d="M2126 2067 c-52 -49 -55 -63 -25 -101 22 -28 97 -71 106 -62 11 11
-12 199 -24 203 -6 2 -32 -16 -57 -40z"/>
<path d="M2342 1783 l-23 -4 7 -162 c4 -99 11 -165 18 -170 6 -4 33 -6 61 -5
40 3 51 7 54 22 2 11 0 89 -4 173 l-7 153 -42 -1 c-22 -1 -51 -4 -64 -6z"/>
<path d="M2557 1638 c3 -84 7 -155 9 -157 6 -7 67 22 96 47 108 91 56 262 -80
262 l-30 0 5 -152z"/>
<path d="M3230 1219 c-119 -50 -46 -149 110 -149 135 0 182 82 77 136 -38 20
-152 28 -187 13z"/>
<path d="M701 877 c-90 -35 -93 -134 -4 -168 46 -17 127 -11 163 14 62 41 60
100 -4 142 -32 21 -114 27 -155 12z"/>
</g>
</svg>
