<svg xmlns="http://www.w3.org/2000/svg"
fill="currentColor" viewBox="0 0 530.000000 530.000000"
 preserveAspectRatio="xMidYMid meet">

<g transform="translate(0.000000,530.000000) scale(0.100000,-0.100000)"
 stroke="none">
<path d="M2495 5194 c-425 -33 -845 -169 -1195 -388 -164 -103 -270 -186 -409
-321 -147 -143 -251 -266 -355 -423 -231 -347 -359 -691 -417 -1122 -16 -119
-16 -462 0 -593 57 -458 227 -882 498 -1246 112 -150 355 -394 497 -499 555
-410 1213 -584 1886 -497 451 59 908 256 1275 552 127 102 319 301 416 430
657 871 701 2032 111 2948 -168 261 -448 547 -708 723 -323 217 -722 369
-1100 416 -124 16 -408 27 -499 20z m-803 -661 c10 -9 18 -23 18 -30 0 -11 7
-13 33 -6 43 11 126 8 138 -4 6 -6 7 -26 3 -48 -5 -31 -13 -40 -43 -52 -81
-32 -141 -65 -136 -74 10 -14 53 -11 134 12 86 24 146 22 249 -11 83 -26 100
-26 104 3 4 30 36 33 116 12 57 -16 63 -20 58 -40 -4 -16 3 -29 27 -51 63 -59
65 -60 93 -33 23 21 36 24 125 27 54 2 99 8 99 13 0 5 8 17 18 27 18 18 22 18
118 1 54 -10 115 -18 135 -19 56 0 98 -19 115 -52 l15 -29 79 7 79 7 18 -33
c10 -18 25 -42 35 -54 l16 -21 27 25 c21 20 39 25 94 28 61 4 74 1 115 -23 53
-31 80 -28 70 9 l-6 24 164 -34 c90 -18 166 -34 170 -34 4 0 22 -13 40 -29 24
-21 48 -30 91 -35 60 -8 87 -25 87 -56 0 -47 -126 -72 -152 -30 -16 26 -44 26
-58 0 -9 -17 -17 -19 -52 -14 -40 7 -41 6 -34 -17 4 -13 10 -36 13 -51 5 -28
5 -28 -49 -28 -70 0 -110 -14 -173 -59 -44 -32 -57 -36 -119 -38 -111 -3 -107
0 -155 -120 -24 -59 -58 -131 -76 -158 -35 -55 -97 -97 -115 -79 -16 16 -24
183 -12 215 8 20 24 31 63 44 65 22 135 90 145 141 3 19 4 38 1 41 -11 11 -37
-6 -46 -30 -12 -32 -48 -40 -82 -20 -38 23 -84 3 -99 -42 -6 -18 -17 -36 -24
-38 -7 -3 -65 -1 -127 5 -196 17 -210 14 -344 -76 -113 -75 -116 -78 -100 -96
10 -11 34 -23 54 -26 144 -26 132 -119 -36 -295 -65 -68 -80 -79 -109 -79 -29
0 -39 -7 -75 -56 -23 -31 -49 -59 -59 -61 -16 -4 -16 -7 1 -41 11 -20 19 -54
19 -75 0 -34 -4 -40 -35 -53 -20 -8 -40 -12 -46 -8 -6 3 -9 26 -8 51 2 34 -1
47 -14 54 -9 6 -17 22 -17 36 0 26 0 26 -60 20 -59 -7 -60 -6 -60 18 0 14 -2
25 -5 25 -3 0 -28 -13 -56 -29 l-50 -28 32 -28 c25 -20 39 -25 61 -21 15 3 28
1 28 -4 0 -12 -32 -46 -48 -51 -7 -3 -2 -23 14 -55 14 -28 28 -76 31 -105 l5
-54 -70 -76 c-70 -75 -72 -76 -158 -99 -51 -14 -94 -32 -106 -44 -18 -20 -20
-20 -29 -3 -15 26 -53 21 -88 -12 -17 -16 -31 -33 -31 -38 0 -5 25 -33 55 -63
80 -79 73 -121 -34 -189 l-49 -32 -63 67 c-60 62 -64 64 -70 42 -16 -54 -9
-76 37 -130 46 -52 75 -107 88 -161 l7 -27 -38 15 c-49 21 -71 42 -89 85 -8
19 -28 52 -44 72 -37 45 -46 68 -60 150 -17 97 -18 98 -51 95 -28 -2 -31 1
-52 65 -49 144 -92 145 -296 7 -96 -64 -111 -86 -111 -161 0 -32 -7 -47 -43
-85 l-44 -46 -37 59 c-42 67 -92 192 -102 253 -5 34 -10 40 -25 36 -28 -9 -72
19 -110 69 -34 45 -71 66 -114 66 -17 0 -24 7 -28 27 -8 42 10 315 28 423 89
541 390 1051 828 1398 82 65 90 68 132 52 36 -14 135 22 175 62 33 33 92 38
122 11z m1126 -89 c6 -2 12 -13 12 -24 0 -21 -14 -27 -25 -10 -3 6 -11 10 -16
10 -6 0 -7 -4 -4 -10 4 -6 -13 -10 -44 -10 -27 0 -53 -4 -56 -10 -12 -19 -54
-10 -71 15 -31 47 -16 55 93 49 54 -3 104 -7 111 -10z m181 -49 c21 -12 11
-25 -19 -25 -35 0 -100 25 -100 38 0 9 101 -1 119 -13z m-202 -51 c13 -4 20
-10 17 -15 -7 -12 -111 -12 -119 0 -9 15 63 25 102 15z m1155 -146 c-13 -13
-54 -7 -59 9 -5 15 27 22 51 10 12 -6 15 -12 8 -19z m444 -126 c-9 -9 -37 8
-31 18 5 8 11 7 21 -1 8 -6 12 -14 10 -17z m136 -177 c38 -55 91 -144 119
-198 58 -113 61 -103 -45 -157 -37 -19 -74 -30 -100 -30 l-40 0 74 75 75 75
-46 -6 c-39 -5 -50 -3 -68 15 -11 11 -21 28 -21 36 0 19 -5 19 -35 -1 -21 -14
-28 -14 -41 -3 -21 17 -44 63 -44 88 0 28 41 54 73 45 22 -5 29 -1 47 28 11
18 20 36 20 41 0 12 -29 8 -55 -9 -26 -17 -71 -9 -133 24 l-33 18 24 22 c30
29 70 41 122 39 38 -2 42 -5 107 -102z m-254 -19 c13 -14 -16 -26 -59 -26 -36
0 -49 4 -49 14 0 8 10 17 23 19 23 5 77 0 85 -7z m-1423 -567 c7 -20 5 -21
-19 -15 -26 6 -27 6 -20 -30 6 -34 -4 -53 -28 -54 -14 0 -9 208 4 230 13 20
20 7 63 -131z m-35 -154 c7 -8 21 -15 32 -15 14 0 19 -6 16 -22 -2 -17 -15
-26 -53 -38 l-50 -15 0 -86 c0 -87 -16 -135 -47 -136 -7 -1 -39 -9 -71 -19
-46 -14 -60 -15 -67 -5 -5 10 -9 9 -13 -3 -9 -22 -57 -40 -70 -27 -7 7 -6 15
3 26 10 13 9 15 -9 15 -11 0 -21 4 -21 9 0 13 57 31 96 31 25 0 38 7 54 30 18
26 24 29 37 18 13 -10 19 -8 34 11 11 13 19 32 19 42 0 11 7 35 14 54 13 31
13 35 0 35 -20 0 -18 5 23 60 39 53 53 59 73 35z m-359 -345 c24 -13 24 -17
-2 -60 -20 -32 -22 -33 -35 -15 -8 10 -14 31 -14 45 0 41 14 49 51 30z m-111
-225 c-7 -8 -17 -15 -22 -15 -6 0 -5 7 2 15 7 8 17 15 22 15 6 0 5 -7 -2 -15z
m-192 -54 c5 -29 -26 -77 -40 -63 -24 24 -2 98 26 89 6 -2 12 -14 14 -26z
m2482 -101 c0 -5 -4 -10 -10 -10 -5 0 -10 5 -10 10 0 6 5 10 10 10 6 0 10 -4
10 -10z m58 -42 c-4 -29 -34 -36 -41 -9 -6 24 0 31 25 31 14 0 19 -6 16 -22z
m-2868 -13 c0 -21 -27 -30 -45 -15 -19 16 -10 30 21 30 15 0 24 -6 24 -15z
m355 -25 c3 -10 -1 -33 -9 -49 -22 -42 -20 -49 17 -53 24 -2 33 -8 35 -25 2
-14 10 -23 22 -23 10 0 20 -10 23 -22 9 -33 0 -34 -24 -4 -18 22 -86 66 -103
66 -7 0 -40 -61 -41 -74 0 -5 -10 -15 -21 -23 -21 -14 -21 -13 2 33 16 32 24
64 24 98 0 57 20 96 50 96 10 0 21 -9 25 -20z m-25 -140 c0 -5 -4 -10 -10 -10
-5 0 -10 5 -10 10 0 6 5 10 10 10 6 0 10 -4 10 -10z m20 -30 c0 -5 7 -7 16 -3
12 4 15 2 10 -8 -3 -8 -9 -22 -12 -31 -4 -10 -10 -18 -15 -18 -12 0 -31 49
-23 61 7 12 24 12 24 -1z m31 -63 c-8 -8 -11 -7 -11 4 0 9 3 19 7 23 4 4 9 2
11 -4 3 -7 -1 -17 -7 -23z m-107 2 c-25 -28 -52 -41 -65 -33 -6 4 5 16 27 29
50 29 62 31 38 4z m-1161 -24 c21 -44 21 -59 2 -75 -13 -10 -19 -10 -35 5 -22
20 -25 41 -10 79 13 35 23 33 43 -9z m1362 -9 c8 -23 6 -30 -8 -41 -9 -7 -17
-17 -17 -24 0 -6 -8 -11 -19 -11 -21 0 -45 23 -34 33 3 4 -8 7 -25 7 -18 0
-32 4 -32 8 0 15 24 32 46 32 12 0 27 7 34 15 19 23 43 14 55 -19z m-251 -67
c24 -19 25 -23 13 -38 -27 -31 -29 -53 -5 -78 l22 -23 -30 -12 c-21 -7 -35
-23 -47 -53 -10 -23 -28 -52 -40 -63 l-23 -22 -74 23 -75 23 -19 52 c-18 50
-18 53 -1 72 9 10 54 38 99 61 44 22 92 49 106 60 32 24 42 23 74 -2z m-644
-46 c104 -50 260 -154 260 -173 0 -9 -47 -6 -57 4 -3 3 2 6 13 6 14 0 11 5
-14 21 -47 31 -50 16 -8 -38 64 -82 33 -111 -59 -57 -51 29 -83 63 -128 135
-20 31 -59 73 -87 94 -84 61 -40 66 80 8z m850 -68 c0 -8 -17 -32 -39 -54 -30
-30 -38 -44 -34 -64 3 -13 0 -35 -7 -47 -10 -18 -9 -24 7 -35 10 -7 15 -16 11
-20 -8 -8 -45 11 -74 37 -21 19 -21 19 -27 -3 -3 -11 -12 -19 -19 -17 -20 7
-21 66 -3 115 14 35 21 43 43 44 17 1 21 3 10 6 -25 6 -22 22 5 28 20 5 102
21 120 24 4 1 7 -6 7 -14z m92 -37 l-22 -22 0 30 c0 39 10 49 29 29 14 -14 13
-17 -7 -37z m155 -43 c31 -39 57 -44 104 -20 29 15 34 14 157 -35 147 -59 173
-74 166 -94 -3 -9 12 -33 35 -59 68 -74 47 -78 -55 -12 -37 25 -74 45 -81 45
-8 0 -26 -9 -42 -21 -27 -20 -29 -20 -96 -3 -61 15 -66 19 -50 31 18 12 18 14
-4 37 -14 15 -39 26 -67 31 -26 4 -49 14 -57 26 -8 11 -21 17 -29 14 -11 -4
-23 6 -38 31 -23 36 -23 37 -5 50 27 20 31 18 62 -21z m-212 -45 c3 -5 -1 -10
-10 -10 -9 0 -13 5 -10 10 3 6 8 10 10 10 2 0 7 -4 10 -10z m100 0 c4 -6 -8
-10 -30 -10 -22 0 -34 4 -30 10 3 6 17 10 30 10 13 0 27 -4 30 -10z m715 -52
c0 -6 -7 -5 -15 2 -8 7 -15 17 -15 22 0 6 7 5 15 -2 8 -7 15 -17 15 -22z m-30
-6 c0 -17 -62 -44 -86 -38 -32 8 -31 24 4 32 15 3 32 7 37 9 19 7 45 5 45 -3z
m-1262 -51 c24 -5 51 -16 60 -26 16 -17 12 -17 -78 -11 -106 7 -167 19 -183
35 -13 13 135 15 201 2z m512 -42 c0 -11 -60 -39 -82 -39 -7 0 1 9 18 19 18
11 35 24 39 30 7 13 25 5 25 -10z m-298 -1 c-9 -9 -15 -9 -24 0 -9 9 -7 12 12
12 19 0 21 -3 12 -12z m128 2 c0 -9 -28 -15 -57 -11 -7 1 -13 -3 -13 -8 0 -6
-8 -7 -17 -4 -14 6 -9 10 22 19 51 16 65 17 65 4z m120 4 c0 -7 -66 -34 -85
-34 -27 0 -16 17 18 28 37 11 67 15 67 6z m217 -90 c48 -14 54 -18 49 -37 -18
-66 -20 -62 42 -95 33 -18 70 -32 81 -32 26 0 45 39 56 114 l7 48 35 -33 c19
-19 48 -56 64 -84 15 -27 44 -62 63 -77 41 -33 143 -183 163 -239 13 -38 11
-46 -18 -132 -59 -176 -93 -213 -184 -202 -35 5 -60 3 -69 -4 -9 -8 -26 -7
-62 4 -39 12 -52 22 -64 47 -11 24 -23 34 -44 36 -24 3 -27 7 -23 28 5 27 -11
32 -43 12 -17 -11 -24 -8 -52 18 -18 17 -46 36 -61 42 -56 24 -166 8 -229 -33
-23 -15 -52 -25 -74 -25 -20 0 -60 -12 -89 -26 -58 -30 -91 -28 -125 6 -19 19
-19 22 -5 50 20 39 19 53 -5 68 -12 7 -20 23 -20 40 0 17 -10 38 -25 52 -23
22 -24 25 -10 46 8 13 15 44 15 68 0 56 18 70 120 96 81 21 120 43 120 68 0
27 20 42 57 42 26 0 33 4 33 19 0 19 52 71 71 71 6 0 15 -13 20 -30 11 -30 49
-44 49 -17 1 21 69 107 86 107 9 0 41 -7 71 -16z m1438 -155 c-8 -12 -35 -12
-35 0 0 11 22 20 33 14 4 -2 5 -9 2 -14z m-55 -45 c0 -17 -22 -14 -28 4 -2 7
3 12 12 12 9 0 16 -7 16 -16z m-957 -653 c25 -4 -18 -111 -46 -111 -23 0 -77
76 -77 109 0 6 93 8 123 2z"/>
<path d="M1024 3495 c-3 -8 10 -80 30 -160 20 -81 36 -153 36 -161 0 -13 -10
-14 -57 -9 -95 10 -98 11 -136 74 -26 41 -44 60 -62 64 -24 4 -26 2 -20 -27 4
-17 8 -38 11 -47 3 -10 -5 -20 -21 -27 -27 -13 -32 -40 -13 -72 11 -17 8 -24
-17 -50 -25 -26 -27 -32 -15 -40 25 -16 42 -12 102 25 l57 36 63 -27 c35 -14
67 -30 73 -35 5 -6 -6 -25 -31 -52 -38 -40 -145 -164 -172 -199 -11 -14 -10
-18 6 -27 17 -9 52 9 224 114 l204 124 93 -29 c97 -30 120 -29 154 5 15 15 15
19 1 46 -18 36 -35 43 -138 59 -42 7 -83 18 -89 25 -7 6 -64 97 -127 202 -108
180 -143 222 -156 188z"/>
</g>
</svg>
